<!-- icon666.com - MILLIONS OF FREE VECTOR ICONS --><svg id="Layer_1" viewBox="0 0 512 512" xmlns="http://www.w3.org/2000/svg" data-name="Layer 1"><path d="m275.14 174.025 28.86 50.014a8.448 8.448 0 0 0 14.625 0l28.878-50.014h136.66a27.857 27.857 0 0 0 27.837-27.825v-93.1a27.868 27.868 0 0 0 -27.837-27.83h-345.7a27.86 27.86 0 0 0 -27.817 27.83v93.1a27.849 27.849 0 0 0 27.822 27.822zm-76.365-43.835a30.539 30.539 0 1 1 30.531-30.538 30.579 30.579 0 0 1 -30.531 30.538zm0-44.173a13.639 13.639 0 1 1 -13.643 13.635 13.65 13.65 0 0 1 13.643-13.635zm112.548 44.173a30.539 30.539 0 1 1 30.531-30.538 30.569 30.569 0 0 1 -30.531 30.538zm0-44.173a13.639 13.639 0 1 1 -13.65 13.635 13.65 13.65 0 0 1 13.65-13.635zm112.548 44.173a30.539 30.539 0 1 1 30.529-30.538 30.569 30.569 0 0 1 -30.531 30.538zm0-44.173a13.639 13.639 0 1 1 -13.651 13.635 13.65 13.65 0 0 1 13.651-13.635zm-319.714 400.712-104.157-100.761 55.651-57.516 104.149 100.748-55.643 57.53zm385.673-227.979-106.051 104.58a45.446 45.446 0 0 1 -33.368 13.688h-129.194a62.216 62.216 0 0 0 -46.626 19.967l-11.41 11.968-86.929-84.085c25.55-49.29 89.132-74.584 137.774-54.21a8.515 8.515 0 0 0 3.267.664h117.837a22.793 22.793 0 0 1 0 45.585h-93.73a8.448 8.448 0 1 0 0 16.9h93.73a39.731 39.731 0 0 0 39.692-39.692 39.307 39.307 0 0 0 -4.905-19.084l98.83-57.055c9.168-5.29 24.788-1.8 31.526 7.048 8.875 11.643-2.739 26.132-10.443 33.73zm-394.299 195.357a8.471 8.471 0 1 0 8.49-8.451h-.091a8.408 8.408 0 0 0 -8.399 8.451z" fill-rule="evenodd"></path></svg>