<!-- icon666.com - MILLIONS OF FREE VECTOR ICONS --><svg id="Capa_1" enable-background="new 0 0 512 512" viewBox="0 0 512 512" xmlns="http://www.w3.org/2000/svg"><g><path d="m256 7.5v497c137.243 0 248.5-111.257 248.5-248.5s-111.257-248.5-248.5-248.5z" fill="#ffb35c"></path><path d="m474.5 256c0-137.243-97.826-248.5-218.5-248.5-137.243 0-248.5 111.257-248.5 248.5s111.257 248.5 248.5 248.5c120.674 0 218.5-111.257 218.5-248.5z" fill="#ffd06a"></path><g fill="#ffb35c"><circle cx="256" cy="361" r="15"></circle><path d="m376 181c-8.974 0-16.156 2.388-22.264 6.21.035-.019 22.264 38.79 22.264 38.79z"></path><path d="m136 181c8.974 0 16.156 2.388 22.264 6.21-.035-.019-22.264 38.79-22.264 38.79z"></path></g><path d="m353.771 187.191c-9.225 5.757-16 14.781-22.771 23.809v90c24.853 0 45-20.147 45-45v-30c0-16.542-8.932-30.99-22.229-38.809z" fill="#e3f1f4"></path><path d="m316 228.783c-7.678 7.168-16.946 12.217-30 12.217v15c0 24.853 20.147 45 45 45 8.284 0 15-20.147 15-45v-27.217z" fill="#fff"></path><path d="m331 211c-4.722 6.295-9.447 12.586-15 17.773v27.227h30v-30c0-8.284-6.716-15-15-15z" fill="#524cb2"></path><circle cx="331" cy="256" fill="#636da4" r="15"></circle><path d="m196 228.773h-15v72.227c24.853 0 45-20.147 45-45v-15c-13.057 0-22.322-5.056-30-12.227z" fill="#e3f1f4"></path><path d="m181 211c-6.773-9.026-13.546-18.052-22.771-23.809-13.297 7.819-22.229 22.267-22.229 38.809v30c0 24.853 20.147 45 45 45 8.284 0 15-20.147 15-45z" fill="#fff"></path><path d="m181 211c-8.284 0-15 6.716-15 15v30h30v-27.227c-5.553-5.187-10.278-11.478-15-17.773z" fill="#524cb2"></path><circle cx="181" cy="256" fill="#636da4" r="15"></circle><path d="m437.02 74.98c-48.352-48.351-112.64-74.98-181.02-74.98-62.629 0-122.915 22.87-169.754 64.396-3.1 2.748-3.384 7.488-.637 10.588 2.749 3.1 7.488 3.385 10.588.637 44.092-39.092 100.845-60.621 159.803-60.621 132.888 0 241 108.112 241 241s-108.112 241-241 241-241-108.112-241-241c0-58.958 21.529-115.711 60.621-159.803 2.748-3.1 2.463-7.84-.637-10.588-3.101-2.748-7.84-2.463-10.588.637-41.526 46.839-64.396 107.125-64.396 169.754 0 68.38 26.629 132.667 74.98 181.02 48.352 48.351 112.64 74.98 181.02 74.98s132.668-26.629 181.02-74.98c48.351-48.353 74.98-112.64 74.98-181.02s-26.629-132.667-74.98-181.02z"></path><path d="m248.5 338.5c-4.143 0-7.5 3.357-7.5 7.5s3.357 7.5 7.5 7.5h15c4.143 0 7.5-3.357 7.5-7.5s-3.357-7.5-7.5-7.5z"></path><path d="m153.186 372.816c-1.758 3.751-.143 8.217 3.607 9.975 3.752 1.759 8.218.143 9.975-3.607 16.159-34.474 51.185-56.749 89.232-56.749s73.073 22.275 89.232 56.749c1.757 3.75 6.223 5.366 9.975 3.607 3.75-1.758 5.365-6.224 3.607-9.975-18.617-39.717-58.974-65.381-102.814-65.381s-84.197 25.664-102.814 65.381z"></path><path d="m383.5 181c0-4.143-3.357-7.5-7.5-7.5-26.25 0-39.399 17.532-51 33-10.866 14.488-20.25 27-39 27-4.136 0-7.5-3.364-7.5-7.5 0-4.143-3.357-7.5-7.5-7.5s-7.5 3.357-7.5 7.5c0 9.777 6.271 18.114 15 21.21v8.79c0 28.948 23.552 52.5 52.5 52.5s52.5-23.552 52.5-52.5v-30c0-13.849-5.555-27.04-15.042-36.746 2.344-.487 4.843-.754 7.542-.754 4.143 0 7.5-3.357 7.5-7.5zm-60 50.913c3.915-3.994 7.399-8.359 10.693-12.69 2.541 1.202 4.307 3.784 4.307 6.777v30c0 4.136-3.364 7.5-7.5 7.5s-7.5-3.364-7.5-7.5zm45-5.913v30c0 20.678-16.822 37.5-37.5 37.5s-37.5-16.822-37.5-37.5v-8.015c5.617-.785 10.567-2.439 15-4.707v12.722c0 12.406 10.094 22.5 22.5 22.5s22.5-10.094 22.5-22.5v-30c0-7.843-4.036-14.757-10.138-18.786 3.33-4.135 6.726-7.876 10.512-10.908 9.117 7.051 14.626 18.046 14.626 29.694z"></path><path d="m128.5 256c0 28.948 23.552 52.5 52.5 52.5s52.5-23.552 52.5-52.5v-8.79c8.729-3.096 15-11.433 15-21.21 0-4.143-3.357-7.5-7.5-7.5s-7.5 3.357-7.5 7.5c0 4.136-3.364 7.5-7.5 7.5-18.75 0-28.134-12.512-39-27-11.601-15.468-24.75-33-51-33-4.143 0-7.5 3.357-7.5 7.5s3.357 7.5 7.5 7.5c2.699 0 5.199.267 7.542.754-9.487 9.706-15.042 22.897-15.042 36.746zm45-30c0-2.993 1.766-5.574 4.307-6.777 3.294 4.331 6.778 8.696 10.693 12.69v24.087c0 4.136-3.364 7.5-7.5 7.5s-7.5-3.364-7.5-7.5zm-30 0c0-11.648 5.509-22.643 14.626-29.694 3.785 3.032 7.182 6.772 10.512 10.908-6.102 4.029-10.138 10.943-10.138 18.786v30c0 12.406 10.094 22.5 22.5 22.5s22.5-10.094 22.5-22.5v-12.722c4.433 2.268 9.383 3.922 15 4.707v8.015c0 20.678-16.822 37.5-37.5 37.5s-37.5-16.822-37.5-37.5z"></path></g></svg>