<!-- icon666.com - MILLIONS OF FREE VECTOR ICONS --><svg id="Capa_1" enable-background="new 0 0 512 512" viewBox="0 0 512 512" xmlns="http://www.w3.org/2000/svg"><g><path d="m384 32v96l-128 64-128-64v-96l135.529-7.529z" fill="#4db5ff"></path><path d="m384 0-120.471 7.529-135.529-7.529h-32v32h32l135.529-7.529 120.471 7.529h32v-32z" fill="#80eaff"></path><path d="m352 416-96 96-96-96-32-64 32-64 96-96 96 96 32 64z" fill="#80eaff"></path><g fill="#4db5ff"><path d="m128 352 32 64h-64l-64-64 64-64h64z"></path><path d="m480 352-64 64h-64l32-64-32-64h64z"></path><circle cx="256" cy="352" r="32"></circle></g><path d="m416 352-64 64h-45.119l64-64-64-64h45.119z" fill="#37f"></path><path d="m141.119 352 64 64h-45.119l-64-64 64-64h45.119z" fill="#37f"></path><path d="m128 0h256v32h-256z" fill="#37f"></path></g></svg>