<!-- icon666.com - MILLIONS OF FREE VECTOR ICONS --><svg id="Layer_1" viewBox="0 0 512 512" xmlns="http://www.w3.org/2000/svg" data-name="Layer 1"><path d="m277.817 316.986-7.268-.348 1.655 7.085a9.761 9.761 0 0 1 .273 2.254 9.9 9.9 0 0 1 -9.888 9.888h-207.156a9.888 9.888 0 1 1 0-19.776h176.678l2.458-10.408a109.129 109.129 0 0 1 -46.183-43.781l-1.58-2.776h-64.84a9.889 9.889 0 0 1 0-19.777h56.54l-1.545-6.724a109.129 109.129 0 0 1 -2.759-24.411v-26.59h-85.08a89.222 89.222 0 0 0 -89.122 89.121v41.262a89.222 89.222 0 0 0 89.122 89.122h2.534a9.927 9.927 0 0 1 8.523 4.873 61 61 0 0 0 24.559 23.191l9.589 4.975-1.627-10.677a66.612 66.612 0 0 1 -.7-12.9 9.867 9.867 0 0 1 9.879-9.458h87.021a89.257 89.257 0 0 0 88.382-77.831l.787-6.187h-34.969c-1.7.002-3.48-.042-5.283-.127zm-222.384-77.635h13.494a9.889 9.889 0 0 1 0 19.777h-13.494a9.889 9.889 0 0 1 0-19.777zm367.445-161.519h-139.778a89.223 89.223 0 0 0 -89.121 89.122v41.262a89.223 89.223 0 0 0 89.121 89.123h87.017a9.869 9.869 0 0 1 9.883 9.461 66.523 66.523 0 0 1 -.7 12.9l-1.629 10.679 9.589-4.974a61 61 0 0 0 24.561-23.192 9.927 9.927 0 0 1 8.523-4.874h2.534a89.224 89.224 0 0 0 89.122-89.123v-41.262a89.224 89.224 0 0 0 -89.122-89.122zm-60.97 180.458a9.889 9.889 0 1 1 -19.777 0v-.15a9.889 9.889 0 0 1 19.777 0zm11.983-60.335a22.044 22.044 0 0 0 -11.983 19.981v7.195a9.889 9.889 0 1 1 -19.777 0v-7.195a41.817 41.817 0 0 1 22.442-37.426 26.7 26.7 0 1 0 -39.251-23.571 9.889 9.889 0 1 1 -19.777 0 46.475 46.475 0 1 1 68.346 41.016z"></path></svg>